<mxfile host="app.diagrams.net" agent="Mozilla/5.0 (X11; Linux x86_64; rv:129.0) Gecko/20100101 Firefox/129.0" version="24.7.7">
  <diagram name="Página-1" id="X1CGwmnytC9Qd44VW7xk">
    <mxGraphModel dx="714" dy="799" grid="1" gridSize="10" guides="1" tooltips="1" connect="1" arrows="1" fold="1" page="1" pageScale="1" pageWidth="827" pageHeight="1169" math="0" shadow="0">
      <root>
        <mxCell id="0" />
        <mxCell id="1" parent="0" />
        <mxCell id="pm9dPlAaopKUU4j6xKAV-38" style="edgeStyle=none;shape=connector;rounded=0;orthogonalLoop=1;jettySize=auto;html=1;strokeColor=default;align=center;verticalAlign=middle;fontFamily=Helvetica;fontSize=11;fontColor=default;labelBackgroundColor=default;endArrow=none;" parent="1" source="pm9dPlAaopKUU4j6xKAV-1" target="pm9dPlAaopKUU4j6xKAV-2" edge="1">
          <mxGeometry relative="1" as="geometry" />
        </mxCell>
        <mxCell id="pm9dPlAaopKUU4j6xKAV-1" value="&lt;div&gt;&amp;lt;&amp;lt;CRUD&amp;gt;&amp;gt;&lt;/div&gt;&lt;div&gt;Consulta Realizada&lt;br&gt;&lt;/div&gt;" style="ellipse;whiteSpace=wrap;html=1;" parent="1" vertex="1">
          <mxGeometry x="304" y="300" width="120" height="80" as="geometry" />
        </mxCell>
        <object label="&lt;div&gt;Profissional de Saúde&lt;/div&gt;&lt;div&gt;&lt;br&gt;&lt;/div&gt;" id="pm9dPlAaopKUU4j6xKAV-2">
          <mxCell style="shape=umlActor;verticalLabelPosition=bottom;verticalAlign=top;html=1;outlineConnect=0;" parent="1" vertex="1">
            <mxGeometry x="389" y="600" width="30" height="60" as="geometry" />
          </mxCell>
        </object>
        <mxCell id="pm9dPlAaopKUU4j6xKAV-21" style="edgeStyle=orthogonalEdgeStyle;rounded=0;orthogonalLoop=1;jettySize=auto;html=1;" parent="1" source="pm9dPlAaopKUU4j6xKAV-3" target="pm9dPlAaopKUU4j6xKAV-2" edge="1">
          <mxGeometry relative="1" as="geometry" />
        </mxCell>
        <mxCell id="pm9dPlAaopKUU4j6xKAV-3" value="&lt;div&gt;Admin&lt;/div&gt;" style="shape=umlActor;verticalLabelPosition=bottom;verticalAlign=top;html=1;outlineConnect=0;" parent="1" vertex="1">
          <mxGeometry x="514" y="600" width="30" height="60" as="geometry" />
        </mxCell>
        <mxCell id="pm9dPlAaopKUU4j6xKAV-41" style="edgeStyle=none;shape=connector;rounded=0;orthogonalLoop=1;jettySize=auto;html=1;strokeColor=default;align=center;verticalAlign=middle;fontFamily=Helvetica;fontSize=11;fontColor=default;labelBackgroundColor=default;endArrow=none;" parent="1" source="pm9dPlAaopKUU4j6xKAV-8" target="pm9dPlAaopKUU4j6xKAV-2" edge="1">
          <mxGeometry relative="1" as="geometry" />
        </mxCell>
        <mxCell id="pm9dPlAaopKUU4j6xKAV-8" value="&lt;div&gt;&amp;lt;&amp;lt;CRUD&amp;gt;&amp;gt;&lt;/div&gt;&lt;div&gt;Gerar Gráfico de Saúde da Gestante&lt;br&gt;&lt;/div&gt;" style="ellipse;whiteSpace=wrap;html=1;" parent="1" vertex="1">
          <mxGeometry x="109" y="560" width="120" height="80" as="geometry" />
        </mxCell>
        <mxCell id="pm9dPlAaopKUU4j6xKAV-37" style="edgeStyle=none;shape=connector;rounded=0;orthogonalLoop=1;jettySize=auto;html=1;strokeColor=default;align=center;verticalAlign=middle;fontFamily=Helvetica;fontSize=11;fontColor=default;labelBackgroundColor=default;endArrow=none;" parent="1" source="pm9dPlAaopKUU4j6xKAV-9" target="pm9dPlAaopKUU4j6xKAV-2" edge="1">
          <mxGeometry relative="1" as="geometry" />
        </mxCell>
        <mxCell id="pm9dPlAaopKUU4j6xKAV-9" value="&lt;div&gt;&amp;lt;&amp;lt;CRUD&amp;gt;&amp;gt;&lt;/div&gt;&lt;div&gt;Gestante&lt;/div&gt;" style="ellipse;whiteSpace=wrap;html=1;" parent="1" vertex="1">
          <mxGeometry x="424" y="360" width="120" height="80" as="geometry" />
        </mxCell>
        <mxCell id="pm9dPlAaopKUU4j6xKAV-39" style="edgeStyle=none;shape=connector;rounded=0;orthogonalLoop=1;jettySize=auto;html=1;strokeColor=default;align=center;verticalAlign=middle;fontFamily=Helvetica;fontSize=11;fontColor=default;labelBackgroundColor=default;endArrow=none;" parent="1" source="pm9dPlAaopKUU4j6xKAV-10" target="pm9dPlAaopKUU4j6xKAV-2" edge="1">
          <mxGeometry relative="1" as="geometry" />
        </mxCell>
        <mxCell id="pm9dPlAaopKUU4j6xKAV-10" value="Consultar Histórico Gestante" style="ellipse;whiteSpace=wrap;html=1;" parent="1" vertex="1">
          <mxGeometry x="184" y="370" width="120" height="80" as="geometry" />
        </mxCell>
        <mxCell id="pm9dPlAaopKUU4j6xKAV-40" style="edgeStyle=none;shape=connector;rounded=0;orthogonalLoop=1;jettySize=auto;html=1;strokeColor=default;align=center;verticalAlign=middle;fontFamily=Helvetica;fontSize=11;fontColor=default;labelBackgroundColor=default;endArrow=none;" parent="1" source="pm9dPlAaopKUU4j6xKAV-11" target="pm9dPlAaopKUU4j6xKAV-2" edge="1">
          <mxGeometry relative="1" as="geometry" />
        </mxCell>
        <mxCell id="pm9dPlAaopKUU4j6xKAV-11" value="&lt;div&gt;&amp;lt;&amp;lt;CRUD&amp;gt;&amp;gt;&lt;/div&gt;&lt;div&gt;Equipe&lt;/div&gt;" style="ellipse;whiteSpace=wrap;html=1;" parent="1" vertex="1">
          <mxGeometry x="120" y="460" width="120" height="80" as="geometry" />
        </mxCell>
        <mxCell id="pm9dPlAaopKUU4j6xKAV-42" style="edgeStyle=none;shape=connector;rounded=0;orthogonalLoop=1;jettySize=auto;html=1;strokeColor=default;align=center;verticalAlign=middle;fontFamily=Helvetica;fontSize=11;fontColor=default;labelBackgroundColor=default;endArrow=none;" parent="1" source="pm9dPlAaopKUU4j6xKAV-12" target="pm9dPlAaopKUU4j6xKAV-2" edge="1">
          <mxGeometry relative="1" as="geometry" />
        </mxCell>
        <mxCell id="pm9dPlAaopKUU4j6xKAV-12" value="Gerar Relatório de Gestantes" style="ellipse;whiteSpace=wrap;html=1;" parent="1" vertex="1">
          <mxGeometry x="150" y="660" width="120" height="80" as="geometry" />
        </mxCell>
        <mxCell id="pm9dPlAaopKUU4j6xKAV-35" style="edgeStyle=none;shape=connector;rounded=0;orthogonalLoop=1;jettySize=auto;html=1;strokeColor=default;align=center;verticalAlign=middle;fontFamily=Helvetica;fontSize=11;fontColor=default;labelBackgroundColor=default;endArrow=none;" parent="1" source="pm9dPlAaopKUU4j6xKAV-13" target="pm9dPlAaopKUU4j6xKAV-2" edge="1">
          <mxGeometry relative="1" as="geometry" />
        </mxCell>
        <mxCell id="pm9dPlAaopKUU4j6xKAV-13" value="&lt;div&gt;&amp;lt;&amp;lt;CRUD&amp;gt;&amp;gt;&lt;/div&gt;&lt;div&gt;Criança&lt;br&gt;&lt;/div&gt;" style="ellipse;whiteSpace=wrap;html=1;" parent="1" vertex="1">
          <mxGeometry x="490" y="470" width="120" height="80" as="geometry" />
        </mxCell>
        <mxCell id="pm9dPlAaopKUU4j6xKAV-31" style="edgeStyle=none;shape=connector;rounded=0;orthogonalLoop=1;jettySize=auto;html=1;strokeColor=default;align=center;verticalAlign=middle;fontFamily=Helvetica;fontSize=11;fontColor=default;labelBackgroundColor=default;endArrow=none;" parent="1" source="pm9dPlAaopKUU4j6xKAV-14" target="pm9dPlAaopKUU4j6xKAV-3" edge="1">
          <mxGeometry relative="1" as="geometry" />
        </mxCell>
        <mxCell id="pm9dPlAaopKUU4j6xKAV-14" value="&lt;div&gt;Configurar Parametros&lt;/div&gt;" style="ellipse;whiteSpace=wrap;html=1;" parent="1" vertex="1">
          <mxGeometry x="560" y="720" width="120" height="80" as="geometry" />
        </mxCell>
        <mxCell id="pm9dPlAaopKUU4j6xKAV-32" style="edgeStyle=none;shape=connector;rounded=0;orthogonalLoop=1;jettySize=auto;html=1;exitX=0;exitY=1;exitDx=0;exitDy=0;strokeColor=default;align=center;verticalAlign=middle;fontFamily=Helvetica;fontSize=11;fontColor=default;labelBackgroundColor=default;endArrow=none;" parent="1" source="pm9dPlAaopKUU4j6xKAV-15" target="pm9dPlAaopKUU4j6xKAV-3" edge="1">
          <mxGeometry relative="1" as="geometry" />
        </mxCell>
        <mxCell id="pm9dPlAaopKUU4j6xKAV-15" value="&lt;div&gt;&amp;lt;&amp;lt;CRUD&amp;gt;&amp;gt;&lt;/div&gt;&lt;div&gt;Operador&lt;/div&gt;" style="ellipse;whiteSpace=wrap;html=1;" parent="1" vertex="1">
          <mxGeometry x="610" y="530" width="120" height="80" as="geometry" />
        </mxCell>
        <mxCell id="pm9dPlAaopKUU4j6xKAV-33" style="edgeStyle=none;shape=connector;rounded=0;orthogonalLoop=1;jettySize=auto;html=1;exitX=0.5;exitY=0;exitDx=0;exitDy=0;strokeColor=default;align=center;verticalAlign=middle;fontFamily=Helvetica;fontSize=11;fontColor=default;labelBackgroundColor=default;endArrow=none;" parent="1" source="pm9dPlAaopKUU4j6xKAV-12" target="pm9dPlAaopKUU4j6xKAV-12" edge="1">
          <mxGeometry relative="1" as="geometry" />
        </mxCell>
        <mxCell id="pm9dPlAaopKUU4j6xKAV-34" style="edgeStyle=none;shape=connector;rounded=0;orthogonalLoop=1;jettySize=auto;html=1;exitX=0.5;exitY=0;exitDx=0;exitDy=0;entryX=0.599;entryY=0.047;entryDx=0;entryDy=0;entryPerimeter=0;strokeColor=default;align=center;verticalAlign=middle;fontFamily=Helvetica;fontSize=11;fontColor=default;labelBackgroundColor=default;endArrow=none;" parent="1" source="pm9dPlAaopKUU4j6xKAV-12" target="pm9dPlAaopKUU4j6xKAV-12" edge="1">
          <mxGeometry relative="1" as="geometry" />
        </mxCell>
        <mxCell id="pm9dPlAaopKUU4j6xKAV-44" style="edgeStyle=none;shape=connector;rounded=0;orthogonalLoop=1;jettySize=auto;html=1;strokeColor=default;align=center;verticalAlign=middle;fontFamily=Helvetica;fontSize=11;fontColor=default;labelBackgroundColor=default;endArrow=none;" parent="1" source="pm9dPlAaopKUU4j6xKAV-43" target="pm9dPlAaopKUU4j6xKAV-3" edge="1">
          <mxGeometry relative="1" as="geometry" />
        </mxCell>
        <mxCell id="pm9dPlAaopKUU4j6xKAV-43" value="Gerenciar Permissões" style="ellipse;whiteSpace=wrap;html=1;" parent="1" vertex="1">
          <mxGeometry x="620" y="630" width="120" height="80" as="geometry" />
        </mxCell>
      </root>
    </mxGraphModel>
  </diagram>
</mxfile>
